<?xml version="1.0" standalone="no"?>
<!DOCTYPE svg PUBLIC "-//W3C//DTD SVG 20010904//EN"
 "http://www.w3.org/TR/2001/REC-SVG-20010904/DTD/svg10.dtd">
<svg version="1.0" xmlns="http://www.w3.org/2000/svg"
 width="707.000000pt" height="173.000000pt" viewBox="0 0 707.000000 173.000000"
 preserveAspectRatio="xMidYMid meet">
<metadata>
Created by potrace 1.15, written by Peter Selinger 2001-2017
</metadata>
<g transform="translate(0.000000,173.000000) scale(0.100000,-0.100000)"
fill="#000000" stroke="none">
<path d="M812 1691 c-11 -7 -12 -31 -7 -117 6 -94 4 -118 -13 -170 -11 -34
-25 -70 -30 -80 -6 -11 -20 -39 -33 -64 -12 -25 -32 -65 -45 -90 -12 -25 -32
-67 -44 -93 -19 -44 -71 -135 -92 -162 -29 -37 -96 -133 -99 -142 -5 -14 -37
-54 -150 -188 -69 -81 -97 -106 -136 -123 -65 -28 -76 -42 -68 -86 5 -26 1
-47 -15 -80 -12 -26 -20 -59 -18 -78 3 -30 6 -33 38 -36 28 -2 41 3 65 28 31
32 69 39 108 18 24 -12 126 -34 222 -47 34 -4 71 -13 83 -20 26 -14 74 -11 70
4 -2 11 -56 33 -98 42 -30 6 -93 35 -101 47 -4 5 -24 12 -45 15 -33 5 -39 10
-39 31 0 16 7 26 21 30 12 3 37 17 55 33 18 15 40 27 49 27 9 0 20 4 26 8 5 4
36 18 69 31 35 14 71 37 87 55 26 30 27 30 41 11 13 -17 17 -18 32 -5 10 8 30
13 46 12 21 -3 37 5 60 27 25 26 34 29 51 20 19 -10 92 -8 171 6 48 9 71 -10
86 -70 6 -24 15 -47 21 -50 5 -3 10 -14 10 -23 0 -9 7 -30 15 -46 8 -15 15
-36 15 -45 0 -9 7 -26 15 -39 19 -26 32 -117 18 -125 -5 -3 -60 -7 -121 -8
-81 -2 -113 -6 -116 -16 -7 -18 -100 -17 -115 0 -6 8 -35 14 -69 15 -32 1 -75
8 -94 16 -34 14 -48 13 -48 -6 0 -13 70 -38 110 -38 20 0 40 -3 44 -7 3 -4 14
-8 24 -10 9 -2 51 -9 92 -16 41 -7 82 -16 90 -19 8 -4 44 -9 80 -12 36 -3 89
-10 118 -14 43 -7 58 -6 73 7 31 25 35 83 10 131 -11 22 -21 50 -21 61 0 26
-27 124 -46 166 -16 34 -19 150 -5 172 13 20 99 30 208 23 60 -3 97 -10 104
-18 13 -16 45 -18 54 -5 7 13 -79 101 -136 138 -44 29 -63 34 -222 57 -76 11
-79 12 -93 45 -8 18 -14 54 -14 80 0 25 -7 55 -15 65 -8 11 -15 41 -15 67 0
26 -5 60 -10 75 -14 35 -29 125 -41 244 -5 52 -16 107 -24 122 -8 14 -15 34
-15 43 0 38 -84 117 -177 167 -38 21 -34 20 -51 9z m145 -610 c7 -11 29 -71
49 -133 19 -62 42 -128 50 -147 14 -31 14 -35 -6 -56 -15 -16 -38 -25 -73 -29
-29 -4 -83 -18 -122 -31 -38 -14 -83 -25 -100 -25 -16 0 -43 -7 -59 -15 -31
-16 -111 -20 -120 -6 -6 9 13 29 57 62 15 12 37 38 47 60 11 21 26 39 34 39
14 0 68 56 106 110 23 33 59 77 88 106 6 7 12 22 12 32 0 25 10 52 19 52 3 0
12 -9 18 -19z"/>
<path d="M3710 1284 c-48 -9 -95 -39 -151 -95 -47 -47 -59 -67 -77 -126 -37
-121 -28 -224 31 -353 23 -50 74 -110 92 -110 7 0 18 -7 25 -15 10 -12 41 -15
161 -15 140 0 152 1 187 24 48 30 111 120 114 165 3 30 -1 35 -24 42 -41 11
-68 1 -68 -26 0 -12 -7 -28 -15 -35 -8 -7 -15 -18 -15 -24 0 -15 -35 -44 -79
-68 -46 -25 -140 -24 -191 2 -54 27 -113 101 -123 153 -13 66 -17 183 -7 214
5 15 12 41 15 56 9 44 83 110 147 130 30 9 63 17 74 17 52 0 163 -64 164 -94
1 -22 39 -56 63 -56 36 0 57 10 57 26 0 26 -37 88 -72 120 -64 59 -85 67 -188
70 -52 1 -106 0 -120 -2z"/>
<path d="M4450 1284 c-67 -25 -127 -64 -165 -108 -25 -28 -45 -55 -45 -61 0
-5 -7 -23 -16 -40 -13 -23 -17 -60 -18 -150 -1 -117 0 -122 32 -186 37 -74 79
-119 137 -149 33 -17 59 -20 174 -20 114 0 141 3 176 20 56 27 98 73 136 150
32 63 33 69 33 186 0 96 -4 125 -17 145 -9 13 -17 31 -17 40 0 10 -3 19 -7 21
-5 2 -24 24 -45 49 -20 25 -60 57 -90 73 -45 24 -67 29 -153 32 -55 2 -107 1
-115 -2z m166 -81 c117 -36 184 -140 184 -286 0 -168 -104 -287 -249 -287 -33
0 -72 5 -86 10 -47 18 -111 79 -139 131 -22 44 -26 63 -26 137 1 155 57 251
171 293 59 22 78 22 145 2z"/>
<path d="M5915 1281 c-66 -17 -106 -49 -137 -110 -33 -65 -18 -142 38 -199 27
-27 163 -82 204 -82 16 0 31 -4 34 -9 3 -4 24 -11 47 -15 51 -8 93 -37 113
-77 13 -26 13 -34 -1 -67 -24 -58 -87 -92 -173 -92 -77 0 -190 57 -190 96 0 6
-7 17 -15 24 -8 7 -15 21 -15 31 0 22 -38 26 -71 9 -20 -11 -26 -45 -10 -55 5
-3 12 -18 16 -33 6 -30 55 -87 97 -115 23 -14 51 -17 177 -17 165 0 194 8 238
68 45 60 68 152 43 167 -5 3 -10 15 -10 26 0 24 -53 80 -95 101 -34 17 -105
38 -215 64 -59 14 -82 25 -107 52 -18 18 -33 44 -33 56 0 34 49 81 107 101 47
17 57 17 109 5 67 -16 104 -44 124 -94 14 -37 40 -51 77 -44 25 4 29 59 7 95
-24 38 -66 83 -78 83 -5 0 -18 8 -29 17 -15 14 -40 18 -120 20 -56 1 -115 -1
-132 -6z"/>
<path d="M2256 1258 c-9 -12 -16 -30 -16 -40 0 -10 -9 -35 -20 -55 -11 -21
-20 -43 -20 -50 0 -13 -3 -21 -33 -81 -9 -19 -17 -40 -17 -47 0 -7 -7 -27 -15
-44 -8 -17 -22 -45 -30 -62 -8 -17 -15 -37 -15 -46 0 -15 -19 -65 -46 -116 -8
-16 -14 -35 -14 -43 0 -8 -9 -33 -20 -55 -24 -46 -17 -52 46 -47 l39 3 32 94
c18 52 35 97 39 100 3 3 72 7 153 9 171 4 161 10 201 -113 13 -38 28 -76 33
-82 11 -15 93 -17 102 -3 3 5 -4 31 -15 57 -24 55 -31 70 -56 133 -9 25 -26
65 -36 90 -11 25 -23 54 -27 65 -5 11 -18 41 -30 66 -11 25 -21 53 -21 62 0 9
-4 18 -9 21 -4 3 -19 34 -31 68 -13 35 -27 68 -31 73 -4 6 -9 21 -11 35 -3 23
-8 25 -60 28 -49 3 -58 0 -72 -20z m104 -178 c0 -8 7 -24 15 -34 8 -11 15 -29
15 -41 0 -12 4 -25 9 -30 14 -14 41 -97 35 -107 -3 -4 -54 -8 -115 -8 -97 0
-109 2 -109 18 1 25 35 121 49 135 6 6 11 22 11 37 0 14 7 34 15 44 8 11 15
34 15 51 0 18 3 35 8 39 7 8 51 -79 52 -104z"/>
<path d="M2749 1276 c-2 -2 -3 -162 -1 -356 l3 -351 46 3 47 3 -2 140 c-1 170
2 176 89 171 116 -8 152 -31 229 -151 22 -33 43 -65 47 -71 16 -21 33 -50 43
-71 8 -20 17 -23 64 -23 63 0 73 8 48 41 -23 32 -41 61 -49 79 -3 8 -19 31
-35 51 -15 20 -28 40 -28 44 0 3 -21 26 -46 51 -26 24 -45 46 -43 48 2 1 24
13 49 25 65 32 85 51 109 105 26 60 26 91 1 147 -28 62 -44 79 -91 100 -36 17
-68 19 -258 19 -120 0 -220 -2 -222 -4z m442 -101 c37 -28 53 -86 35 -128 -28
-67 -83 -87 -244 -87 -81 0 -114 4 -124 14 -18 18 -23 193 -6 214 10 11 41 13
162 10 131 -3 154 -6 177 -23z"/>
<path d="M5023 928 l2 -353 41 -3 41 -3 5 53 c3 29 4 149 3 265 -3 199 -2 212
15 203 16 -9 124 -157 145 -200 5 -11 13 -20 16 -20 4 0 17 -20 29 -44 11 -24
27 -47 35 -50 8 -3 15 -10 15 -17 0 -6 14 -28 30 -49 17 -21 30 -41 30 -44 0
-4 15 -27 33 -51 32 -44 33 -45 85 -42 l53 2 1 350 1 350 -47 3 -46 3 0 -275
0 -275 -25 25 c-14 14 -25 29 -25 34 0 6 -5 10 -10 10 -6 0 -15 11 -20 24 -10
28 -131 209 -142 214 -5 2 -8 10 -8 17 0 8 -6 18 -14 22 -7 4 -23 26 -34 47
-12 22 -25 42 -29 45 -4 3 -24 30 -43 58 -35 53 -35 53 -87 53 l-53 0 3 -352z"/>
<path d="M6642 1268 c-5 -7 -15 -32 -21 -55 -6 -23 -16 -45 -21 -48 -6 -3 -10
-17 -10 -30 0 -13 -4 -26 -9 -29 -5 -3 -12 -18 -15 -33 -6 -25 -21 -61 -47
-115 -5 -10 -9 -23 -9 -30 -1 -7 -9 -31 -20 -53 -11 -22 -19 -45 -20 -52 0 -6
-6 -24 -14 -40 -21 -40 -76 -187 -76 -202 0 -8 15 -11 46 -9 37 2 48 8 58 28
16 30 35 83 46 128 5 19 11 37 15 40 4 4 73 8 154 10 l148 3 20 -33 c11 -18
22 -42 25 -53 4 -11 15 -42 25 -70 l19 -50 52 -3 c49 -3 52 -2 52 21 0 14 -7
30 -15 37 -8 7 -15 23 -15 35 0 12 -7 28 -15 35 -8 7 -15 19 -15 27 0 8 -7 31
-16 51 -16 36 -25 57 -58 135 -9 21 -16 44 -16 51 0 8 -7 19 -15 26 -8 7 -15
21 -15 30 0 10 -6 31 -14 47 -26 51 -46 103 -46 117 0 8 -7 19 -15 26 -8 7
-15 25 -15 41 0 29 -1 29 -59 29 -35 0 -63 -5 -69 -12z m77 -121 c12 -24 21
-53 21 -64 0 -12 7 -28 15 -37 8 -8 15 -23 15 -33 0 -10 6 -27 14 -38 7 -11
16 -31 19 -45 3 -14 9 -35 12 -47 7 -23 7 -23 -104 -23 -125 0 -139 8 -108 62
9 17 17 37 17 47 0 9 7 26 15 37 8 10 15 28 15 39 0 11 7 33 15 49 8 15 15 36
15 46 0 19 10 50 15 50 2 0 13 -19 24 -43z"/>
</g>
</svg>
