<?xml version="1.0" standalone="no"?>
<!DOCTYPE svg PUBLIC "-//W3C//DTD SVG 20010904//EN"
 "http://www.w3.org/TR/2001/REC-SVG-20010904/DTD/svg10.dtd">
<svg version="1.0" xmlns="http://www.w3.org/2000/svg"
 width="120.000000pt" height="78.000000pt" viewBox="0 0 120.000000 78.000000"
 preserveAspectRatio="xMidYMid meet">

<g transform="translate(0.000000,78.000000) scale(0.100000,-0.100000)"
fill="#000000" stroke="none">
<path d="M185 697 c-3 -7 -4 -131 -3 -277 l3 -265 424 -3 c410 -2 463 1 436
27 -15 13 -156 21 -382 21 -157 1 -204 3 -200 13 3 7 49 114 102 239 83 191
96 230 85 243 -10 12 -34 15 -111 15 -90 0 -99 -2 -99 -19 0 -25 19 -31 95
-31 l64 0 -36 -79 c-36 -79 -36 -80 -76 -83 -50 -4 -60 -25 -18 -41 17 -6 31
-14 31 -17 0 -3 -23 -57 -50 -120 l-50 -115 -82 -3 -83 -3 3 126 3 125 45 0
c44 0 49 5 38 34 -4 11 -19 16 -45 16 l-39 0 0 80 0 80 85 0 c84 0 91 3 79 34
-5 13 -25 16 -110 16 -75 0 -106 -4 -109 -13z"/>
<path d="M633 263 c-14 -5 -18 -53 -5 -53 5 0 8 10 8 23 -1 16 4 21 17 19 9
-2 17 -1 17 1 0 8 -25 14 -37 10z"/>
<path d="M690 238 c0 -18 4 -28 8 -22 4 6 14 14 22 17 12 4 11 6 -2 6 -21 1
-24 17 -5 24 7 3 5 6 -5 6 -14 1 -18 -7 -18 -31z"/>
<path d="M837 263 c-11 -10 -8 -53 4 -53 5 0 8 4 4 9 -3 5 3 12 12 14 17 4 17
5 1 6 -21 1 -24 17 -5 24 6 3 7 6 1 6 -6 1 -14 -2 -17 -6z"/>
<path d="M887 263 c-4 -3 -7 -18 -7 -32 0 -21 2 -23 11 -11 8 11 12 12 16 3 8
-21 19 -15 19 10 0 28 -23 47 -39 30z m28 -13 c3 -5 -1 -10 -10 -10 -9 0 -13
5 -10 10 3 6 8 10 10 10 2 0 7 -4 10 -10z"/>
<path d="M532 235 c0 -16 2 -22 5 -12 2 9 2 23 0 30 -3 6 -5 -1 -5 -18z"/>
<path d="M560 233 c0 -20 3 -24 9 -14 6 9 11 10 15 2 4 -6 11 -11 16 -11 15 0
2 24 -20 38 -18 11 -20 10 -20 -15z"/>
<path d="M741 233 c0 -25 1 -26 9 -8 7 18 8 19 15 3 11 -27 25 -21 24 10 0 24
-1 25 -9 7 -7 -18 -8 -19 -15 -2 -11 26 -25 20 -24 -10z"/>
<path d="M802 235 c0 -16 2 -22 5 -12 2 9 2 23 0 30 -3 6 -5 -1 -5 -18z"/>
<path d="M942 235 c0 -16 2 -22 5 -12 2 9 2 23 0 30 -3 6 -5 -1 -5 -18z"/>
<path d="M971 242 c-15 -27 -15 -27 14 -27 29 0 30 4 11 30 -13 18 -14 18 -25
-3z"/>
<path d="M653 225 c0 -8 4 -15 9 -15 4 0 8 7 8 15 0 8 -4 15 -8 15 -5 0 -9 -7
-9 -15z"/>
</g>
</svg>
