<svg width="1280" height="313" xmlns="http://www.w3.org/2000/svg" preserveAspectRatio="xMidYMid meet" version="1.0">
 <metadata>Created by potrace 1.16, written by Peter Selinger 2001-2019</metadata>

 <g>
  <title>Layer 1</title>
  <g id="svg_1" fill="#000000" transform="translate(0.000000,313.000000) scale(0.100000,-0.100000)">
   <path id="svg_2" d="m1469,3053c-11,-13 -14,-65 -14,-237c0,-216 -1,-223 -28,-297c-33,-92 -306,-653 -370,-759c-24,-41 -86,-135 -138,-207c-52,-73 -106,-152 -121,-175c-33,-54 -263,-332 -352,-426c-52,-54 -87,-81 -157,-117c-49,-25 -96,-57 -105,-69c-10,-16 -14,-44 -13,-87c2,-50 -5,-85 -30,-158c-49,-140 -36,-191 49,-191c42,0 54,6 104,46c70,58 116,66 202,36c73,-25 209,-54 377,-81c70,-12 144,-28 164,-36c19,-8 58,-15 85,-15c41,0 49,3 46,17c-3,19 -65,46 -197,87c-46,15 -104,40 -128,57c-25,16 -72,36 -106,44c-63,15 -77,26 -77,61c0,21 28,54 46,54c5,0 43,23 83,50c41,28 86,53 100,57c49,12 243,102 279,129c21,15 49,41 64,58l26,31l31,-29c29,-28 31,-28 56,-12c14,9 49,20 78,23c62,7 77,14 128,60l39,35l65,-13c55,-11 85,-10 199,4c159,19 187,14 215,-42c11,-20 24,-56 31,-81c6,-25 19,-56 29,-70c10,-14 22,-43 28,-65c16,-58 52,-161 79,-225c39,-91 57,-211 34,-225c-5,-3 -98,-10 -206,-15c-169,-8 -201,-12 -229,-30c-44,-27 -140,-27 -201,0c-26,12 -83,24 -141,30c-54,5 -120,16 -148,25c-64,19 -95,19 -95,0c0,-8 10,-21 23,-29c32,-20 124,-46 166,-46c20,0 65,-9 101,-19c146,-45 514,-106 760,-128c57,-4 69,-2 92,16c33,26 52,90 44,146c-3,22 -19,72 -35,110c-17,39 -31,84 -31,101c0,36 -38,173 -77,279c-21,59 -26,88 -27,186c-1,139 5,150 91,168c71,14 317,14 403,0c35,-5 79,-19 98,-31c36,-22 82,-18 82,7c0,24 -148,173 -224,227c-86,60 -124,71 -355,108c-239,38 -241,40 -260,225c-5,50 -18,110 -29,135c-11,25 -23,81 -26,125c-4,44 -18,121 -31,172c-13,50 -36,188 -51,304c-26,212 -35,258 -69,354c-10,28 -22,62 -28,78c-15,43 -165,177 -262,235c-95,56 -115,61 -136,35zm269,-1114c12,-25 56,-144 97,-265c40,-120 79,-233 86,-250c11,-27 10,-36 -4,-58c-24,-36 -63,-54 -169,-75c-51,-11 -145,-35 -210,-55c-64,-19 -140,-38 -170,-42c-29,-4 -73,-15 -98,-24c-85,-33 -230,-38 -230,-8c0,7 38,48 84,92c46,45 98,105 116,134c20,33 45,58 67,69c31,15 114,106 203,223c19,25 58,72 87,106c52,60 73,99 73,134c0,31 19,72 33,68c6,-2 22,-24 35,-49z"/>
   <path id="svg_3" d="m4355,2151c-8,-16 -19,-31 -24,-33c-5,-1 -26,-37 -46,-78c-54,-110 -70,-138 -104,-181c-17,-21 -31,-40 -31,-44c0,-5 -57,-82 -100,-135c-53,-65 -119,-161 -146,-212c-23,-44 -170,-199 -233,-246c-17,-13 -31,-31 -31,-41c0,-26 39,-58 88,-71c63,-16 100,0 174,77c35,36 84,87 110,114l47,49l68,0c50,0 77,5 101,20c18,11 45,20 60,20c37,0 154,25 180,39c11,6 30,11 40,11c24,0 64,-45 81,-91c7,-19 22,-54 34,-78c53,-108 101,-161 145,-161c44,0 61,9 77,41c25,47 17,77 -38,144c-22,27 -77,121 -77,131c0,7 -11,34 -24,61c-13,26 -29,73 -36,103c-7,30 -18,66 -25,80c-7,14 -24,59 -39,100c-14,41 -43,120 -66,174c-33,83 -40,111 -40,168l0,68l-65,0c-61,0 -65,-2 -80,-29zm78,-380c49,-94 58,-158 28,-185c-12,-11 -43,-23 -69,-26c-26,-4 -75,-13 -109,-20c-108,-24 -156,15 -93,75c16,16 30,34 30,41c0,7 4,14 8,16c5,2 20,19 33,39c62,92 102,140 118,137c9,-2 33,-36 54,-77z"/>
   <path id="svg_4" d="m7100,2158c-30,-16 -67,-18 -280,-18c-217,0 -250,-3 -286,-19c-70,-32 -80,-53 -88,-193c-7,-133 -29,-334 -40,-358c-13,-32 -66,-306 -66,-345c0,-93 73,-142 167,-112c110,37 213,57 286,57c51,0 93,6 126,19c38,14 66,17 115,14c47,-4 76,-1 106,11c22,9 54,16 71,16c44,0 82,24 104,64c18,33 18,37 2,70c-25,53 -70,58 -152,17c-48,-23 -77,-31 -119,-31c-32,0 -77,-9 -107,-20c-38,-15 -63,-19 -94,-14c-26,3 -51,1 -64,-6c-28,-15 -148,-25 -195,-16c-46,9 -55,40 -33,105c9,25 19,72 23,103c10,90 15,93 213,94c108,1 177,6 196,14c17,7 63,16 104,21c83,9 121,34 121,78c-1,62 -53,82 -145,56c-129,-35 -194,-45 -301,-45c-150,0 -149,-1 -137,124c6,53 14,100 17,104c4,4 101,10 214,13c174,4 212,8 240,23c24,13 47,17 79,13c55,-6 160,28 198,63c27,25 33,67 14,101c-10,19 -19,20 -132,17c-91,-2 -131,-7 -157,-20z"/>
   <path id="svg_5" d="m8071,2166c-7,-8 -27,-17 -45,-20c-40,-8 -157,-68 -204,-105c-53,-42 -222,-211 -222,-223c0,-5 -11,-23 -24,-39c-53,-63 -106,-240 -105,-354c0,-131 40,-208 143,-276l61,-40l120,5c171,6 199,13 350,87c34,16 67,29 74,29c7,0 30,14 51,30c21,17 42,30 46,30c5,0 41,23 79,50c39,28 86,61 105,74c19,13 41,31 49,40c17,21 57,21 65,0c3,-9 6,-31 6,-49c0,-18 16,-68 35,-110c39,-84 112,-164 168,-185c18,-7 53,-23 78,-36c40,-21 61,-24 148,-24c104,0 117,3 256,71c98,48 189,147 217,239c28,87 48,214 48,296c0,41 6,107 14,147c45,231 46,287 6,319c-25,21 -78,23 -100,5c-30,-23 -58,-83 -69,-144c-25,-145 -30,-183 -36,-278c-17,-279 -58,-379 -182,-441c-50,-26 -67,-29 -147,-29c-81,0 -95,3 -126,25c-116,82 -131,117 -131,296c0,72 3,138 6,146c3,8 12,52 19,99c7,46 26,132 41,191c26,99 27,110 14,145c-15,38 -15,38 -77,41c-42,2 -62,-1 -62,-8c0,-7 -8,-24 -18,-38c-24,-34 -28,-50 -52,-197c-41,-245 -47,-262 -105,-319c-28,-28 -67,-62 -85,-76c-19,-14 -46,-35 -61,-47c-15,-13 -30,-23 -33,-23c-3,0 -25,-15 -50,-32c-86,-65 -265,-155 -326,-164c-25,-4 -62,-15 -82,-25c-27,-14 -59,-19 -114,-19l-77,0l-42,43c-57,56 -63,92 -41,226c15,87 42,165 74,217c82,134 233,272 342,315c19,7 50,24 69,36c37,25 71,29 89,11c20,-20 14,-38 -28,-85c-43,-50 -48,-69 -25,-112c14,-29 39,-41 86,-41c25,0 36,10 125,113c9,10 22,34 30,54c18,43 5,93 -31,117c-13,8 -26,25 -30,36c-6,19 -15,20 -139,20c-102,0 -136,-3 -145,-14z"/>
   <path id="svg_6" d="m10350,2167c0,-8 -16,-34 -35,-58c-19,-24 -35,-49 -35,-54c0,-29 -122,-221 -209,-330c-61,-76 -85,-110 -165,-230c-56,-84 -210,-255 -231,-255c-6,0 -22,-11 -35,-25c-20,-22 -22,-28 -12,-50c17,-38 86,-65 141,-58c41,6 54,16 161,125l116,118l65,0c45,0 75,6 101,19c19,11 38,17 41,14c6,-6 124,20 195,43c23,8 47,14 52,14c15,0 50,-42 66,-80c46,-106 63,-135 117,-202c34,-42 44,-48 77,-48c85,0 109,119 36,179c-8,7 -24,30 -35,51c-11,21 -24,47 -30,57c-24,42 -70,162 -81,208c-7,28 -23,73 -35,100c-13,28 -26,66 -30,85c-7,32 -17,58 -71,175c-11,24 -21,74 -24,125l-5,85l-67,3c-53,2 -68,0 -68,-11zm28,-326c17,-10 38,-51 69,-130c41,-108 24,-133 -112,-161c-95,-20 -154,-23 -170,-10c-21,18 -19,44 6,66c21,19 62,76 126,177c40,64 55,75 81,58z"/>
   <path id="svg_7" d="m5159,2117c-19,-12 -38,-35 -43,-50c-8,-22 -5,-33 22,-71c37,-52 39,-67 12,-132c-10,-27 -29,-114 -40,-194c-12,-80 -28,-172 -35,-206c-27,-118 -28,-150 -7,-196c11,-24 33,-56 50,-72c29,-27 35,-28 99,-24c46,3 84,13 118,31c87,45 169,76 215,83c24,3 61,17 81,29c20,13 54,28 76,34c22,6 51,19 64,29c13,10 40,24 59,32c64,24 223,141 244,179c5,9 17,25 26,36c22,25 60,132 60,168c0,34 -41,126 -77,174c-55,74 -100,105 -187,129c-150,43 -157,43 -432,44c-266,0 -272,0 -305,-23zm636,-173c92,-20 171,-88 181,-157c7,-41 -30,-109 -96,-177c-55,-56 -169,-117 -250,-132c-30,-5 -75,-20 -100,-33c-25,-12 -67,-26 -95,-30c-27,-4 -67,-16 -89,-27c-39,-20 -39,-20 -65,0c-24,18 -26,25 -23,78c1,32 9,87 18,123c8,36 19,97 24,135c18,123 41,206 64,222c17,12 53,14 206,11c102,-3 203,-9 225,-13z"/>
   <path id="svg_8" d="m3930,869c-25,-4 -68,-8 -97,-8c-28,-1 -54,-5 -58,-10c-3,-5 6,-26 20,-47c31,-46 31,-59 1,-103c-20,-29 -25,-51 -27,-111c-4,-137 -6,-130 52,-130l51,0l-7,29c-5,23 -2,32 17,45c12,9 33,16 47,16c13,0 43,11 66,25c24,13 62,27 86,31c39,7 85,29 176,88c18,12 40,35 50,53c15,29 15,33 0,56c-9,14 -40,37 -69,51c-47,23 -64,25 -158,24c-58,-1 -125,-5 -150,-9zm278,-101c5,-39 -51,-78 -125,-87c-32,-4 -74,-17 -93,-29c-101,-63 -153,28 -62,110l37,33l120,0l120,0l3,-27z"/>
   <path id="svg_9" d="m4535,861c-99,-19 -96,-15 -74,-93c11,-40 11,-58 0,-105c-8,-32 -16,-77 -18,-100c-4,-38 -2,-44 20,-54c14,-6 37,-9 51,-5c24,6 26,11 26,57c0,40 6,58 25,80c24,29 24,31 8,64c-15,31 -15,36 1,59c18,28 22,29 141,28c73,-1 82,-3 103,-27c12,-14 22,-32 22,-40c0,-38 75,-33 108,8c20,23 11,71 -13,75c-11,2 -29,12 -40,22c-38,33 -64,40 -167,45c-73,3 -130,-1 -193,-14z"/>
   <path id="svg_10" d="m5440,871c-43,-7 -61,-15 -157,-68c-71,-39 -148,-143 -169,-226c-3,-15 -10,-29 -14,-32c-12,-7 -120,22 -168,45c-23,11 -47,20 -55,20c-18,0 -47,32 -47,53c0,14 -11,17 -64,17c-74,0 -116,-13 -116,-35c0,-8 12,-20 28,-26c32,-13 101,-45 122,-58c8,-5 60,-23 115,-41c104,-35 138,-35 169,-5c21,21 57,11 92,-26l28,-29l150,0c167,0 180,4 296,82c62,42 95,81 115,138c16,46 5,93 -29,123c-63,55 -192,85 -296,68zm193,-113c54,-43 51,-75 -12,-137c-26,-26 -63,-53 -82,-60c-19,-7 -41,-17 -49,-22c-62,-39 -144,-50 -207,-29c-29,11 -63,55 -63,84c0,8 8,29 18,45c19,31 97,101 113,101c6,0 23,10 39,21c63,47 181,46 243,-3z"/>
   <path id="svg_11" d="m8000,874c-8,-3 -38,-12 -66,-21c-43,-14 -67,-14 -164,-5c-85,8 -118,8 -128,-1c-12,-9 -11,-13 2,-23c12,-8 29,-9 60,-2c24,5 64,8 88,6l43,-3l-1,-55c-1,-30 -5,-80 -10,-110c-5,-30 -7,-75 -4,-100c4,-38 9,-46 33,-54c51,-18 61,-1 68,110c6,108 24,158 61,170c13,4 61,7 108,6c115,-3 145,6 145,44c0,24 -5,30 -30,35c-35,8 -183,10 -205,3z"/>
   <path id="svg_12" d="m7295,856c-136,-46 -234,-109 -296,-191c-51,-68 -54,-123 -9,-173l30,-32l170,0c94,0 170,4 170,9c0,5 24,15 53,21c28,7 59,18 67,24c8,7 28,18 45,25c52,22 125,82 125,101c0,22 -28,40 -50,32c-8,-3 -28,-16 -43,-28c-16,-13 -34,-24 -40,-24c-6,0 -28,-12 -48,-26c-20,-14 -63,-32 -94,-40c-32,-9 -69,-23 -83,-32c-20,-13 -49,-17 -115,-17c-76,0 -91,3 -103,19c-26,37 -17,78 29,128c40,45 147,108 182,108c9,0 27,7 40,16c22,15 27,14 63,-6c48,-27 89,-23 114,10c36,49 2,77 -99,85c-43,3 -83,-1 -108,-9z"/>
   <path id="svg_13" d="m6129,839c-7,-13 -8,-42 -4,-80c9,-73 -5,-115 -51,-160l-35,-34l-122,-5c-67,-3 -128,-9 -134,-13c-19,-12 -16,-35 6,-47c27,-14 257,-13 284,1c38,20 127,91 127,102c0,6 7,18 16,28c32,35 30,181 -2,214c-23,22 -71,19 -85,-6z"/>
   <path id="svg_14" d="m9142,851c-7,-4 -22,-50 -33,-100c-28,-129 -49,-175 -89,-191c-29,-12 -33,-12 -43,6c-5,10 -40,49 -77,85c-37,37 -79,83 -94,102c-15,20 -40,40 -56,46c-42,14 -63,-9 -85,-92c-9,-37 -21,-70 -26,-73c-10,-6 -49,-133 -49,-158c0,-14 8,-17 48,-14l47,3l13,65c16,83 41,134 67,138c13,2 39,-16 75,-54c30,-31 64,-61 75,-67c11,-5 43,-28 72,-49c37,-27 62,-38 87,-38c34,0 34,0 60,80c14,45 39,112 55,150c38,88 47,136 31,155c-14,16 -57,20 -78,6z"/>
   <path id="svg_15" d="m10741,836c-7,-8 -19,-36 -27,-62c-8,-26 -25,-62 -39,-80c-14,-18 -25,-37 -25,-42c0,-14 -58,-62 -75,-62c-7,0 -39,30 -71,68c-72,82 -71,82 -111,82c-28,0 -45,-13 -114,-85c-90,-94 -123,-108 -135,-57c-4,15 -11,32 -16,39c-5,6 -20,40 -32,75c-18,51 -31,68 -63,91c-43,29 -73,28 -73,-3c0,-10 12,-42 28,-72c15,-29 42,-87 61,-129c35,-76 85,-129 122,-129c9,0 53,38 97,85c104,110 112,110 207,15c60,-60 74,-70 105,-70c29,0 43,9 81,48c91,94 163,219 157,270c-2,22 -9,28 -34,30c-18,2 -36,-3 -43,-12z"/>
   <path id="svg_16" d="m6475,818c-77,-25 -89,-41 -99,-137c-3,-29 -15,-71 -26,-93c-26,-50 -25,-72 4,-91c21,-14 50,-15 247,-6c123,6 230,12 237,15c7,2 12,14 10,26c-3,20 -8,23 -43,21c-22,-2 -105,-3 -185,-2c-171,0 -183,5 -157,66c9,21 19,57 22,81c6,39 12,47 57,74c43,26 48,33 32,38c-42,15 -70,17 -99,8z"/>
   <path id="svg_17" d="m9432,805c-38,-16 -62,-64 -62,-121c0,-20 -12,-63 -27,-96l-26,-59l24,-24l24,-24l235,11c180,8 239,14 250,25c13,13 13,16 -5,29c-15,12 -32,14 -70,8c-27,-4 -108,-6 -180,-5c-153,3 -170,11 -143,64c9,17 21,53 28,78c11,44 52,89 79,89c17,0 24,22 10,31c-21,13 -100,10 -137,-6z"/>
  </g>
  <rect id="svg_18" height="78" width="720.99998" y="211.49999" x="361.99997" stroke="#000" fill="#fff"/>
 </g>
</svg>