<?xml version="1.0" standalone="no"?>
<!DOCTYPE svg PUBLIC "-//W3C//DTD SVG 20010904//EN"
 "http://www.w3.org/TR/2001/REC-SVG-20010904/DTD/svg10.dtd">
<svg version="1.0" xmlns="http://www.w3.org/2000/svg"
 width="1280.000000pt" height="313.000000pt" viewBox="0 0 1280.000000 313.000000"
 preserveAspectRatio="xMidYMid meet">
<metadata>
Created by potrace 1.16, written by Peter Selinger 2001-2019
</metadata>
<g transform="translate(0.000000,313.000000) scale(0.100000,-0.100000)"
fill="#000000" stroke="none">
<path d="M1469 3053 c-11 -13 -14 -65 -14 -237 0 -216 -1 -223 -28 -297 -33
-92 -306 -653 -370 -759 -24 -41 -86 -135 -138 -207 -52 -73 -106 -152 -121
-175 -33 -54 -263 -332 -352 -426 -52 -54 -87 -81 -157 -117 -49 -25 -96 -57
-105 -69 -10 -16 -14 -44 -13 -87 2 -50 -5 -85 -30 -158 -49 -140 -36 -191 49
-191 42 0 54 6 104 46 70 58 116 66 202 36 73 -25 209 -54 377 -81 70 -12 144
-28 164 -36 19 -8 58 -15 85 -15 41 0 49 3 46 17 -3 19 -65 46 -197 87 -46 15
-104 40 -128 57 -25 16 -72 36 -106 44 -63 15 -77 26 -77 61 0 21 28 54 46 54
5 0 43 23 83 50 41 28 86 53 100 57 49 12 243 102 279 129 21 15 49 41 64 58
l26 31 31 -29 c29 -28 31 -28 56 -12 14 9 49 20 78 23 62 7 77 14 128 60 l39
35 65 -13 c55 -11 85 -10 199 4 159 19 187 14 215 -42 11 -20 24 -56 31 -81 6
-25 19 -56 29 -70 10 -14 22 -43 28 -65 16 -58 52 -161 79 -225 39 -91 57
-211 34 -225 -5 -3 -98 -10 -206 -15 -169 -8 -201 -12 -229 -30 -44 -27 -140
-27 -201 0 -26 12 -83 24 -141 30 -54 5 -120 16 -148 25 -64 19 -95 19 -95 0
0 -8 10 -21 23 -29 32 -20 124 -46 166 -46 20 0 65 -9 101 -19 146 -45 514
-106 760 -128 57 -4 69 -2 92 16 33 26 52 90 44 146 -3 22 -19 72 -35 110 -17
39 -31 84 -31 101 0 36 -38 173 -77 279 -21 59 -26 88 -27 186 -1 139 5 150
91 168 71 14 317 14 403 0 35 -5 79 -19 98 -31 36 -22 82 -18 82 7 0 24 -148
173 -224 227 -86 60 -124 71 -355 108 -239 38 -241 40 -260 225 -5 50 -18 110
-29 135 -11 25 -23 81 -26 125 -4 44 -18 121 -31 172 -13 50 -36 188 -51 304
-26 212 -35 258 -69 354 -10 28 -22 62 -28 78 -15 43 -165 177 -262 235 -95
56 -115 61 -136 35z m269 -1114 c12 -25 56 -144 97 -265 40 -120 79 -233 86
-250 11 -27 10 -36 -4 -58 -24 -36 -63 -54 -169 -75 -51 -11 -145 -35 -210
-55 -64 -19 -140 -38 -170 -42 -29 -4 -73 -15 -98 -24 -85 -33 -230 -38 -230
-8 0 7 38 48 84 92 46 45 98 105 116 134 20 33 45 58 67 69 31 15 114 106 203
223 19 25 58 72 87 106 52 60 73 99 73 134 0 31 19 72 33 68 6 -2 22 -24 35
-49z"/>
<path d="M4355 2151 c-8 -16 -19 -31 -24 -33 -5 -1 -26 -37 -46 -78 -54 -110
-70 -138 -104 -181 -17 -21 -31 -40 -31 -44 0 -5 -57 -82 -100 -135 -53 -65
-119 -161 -146 -212 -23 -44 -170 -199 -233 -246 -17 -13 -31 -31 -31 -41 0
-26 39 -58 88 -71 63 -16 100 0 174 77 35 36 84 87 110 114 l47 49 68 0 c50 0
77 5 101 20 18 11 45 20 60 20 37 0 154 25 180 39 11 6 30 11 40 11 24 0 64
-45 81 -91 7 -19 22 -54 34 -78 53 -108 101 -161 145 -161 44 0 61 9 77 41 25
47 17 77 -38 144 -22 27 -77 121 -77 131 0 7 -11 34 -24 61 -13 26 -29 73 -36
103 -7 30 -18 66 -25 80 -7 14 -24 59 -39 100 -14 41 -43 120 -66 174 -33 83
-40 111 -40 168 l0 68 -65 0 c-61 0 -65 -2 -80 -29z m78 -380 c49 -94 58 -158
28 -185 -12 -11 -43 -23 -69 -26 -26 -4 -75 -13 -109 -20 -108 -24 -156 15
-93 75 16 16 30 34 30 41 0 7 4 14 8 16 5 2 20 19 33 39 62 92 102 140 118
137 9 -2 33 -36 54 -77z"/>
<path d="M7100 2158 c-30 -16 -67 -18 -280 -18 -217 0 -250 -3 -286 -19 -70
-32 -80 -53 -88 -193 -7 -133 -29 -334 -40 -358 -13 -32 -66 -306 -66 -345 0
-93 73 -142 167 -112 110 37 213 57 286 57 51 0 93 6 126 19 38 14 66 17 115
14 47 -4 76 -1 106 11 22 9 54 16 71 16 44 0 82 24 104 64 18 33 18 37 2 70
-25 53 -70 58 -152 17 -48 -23 -77 -31 -119 -31 -32 0 -77 -9 -107 -20 -38
-15 -63 -19 -94 -14 -26 3 -51 1 -64 -6 -28 -15 -148 -25 -195 -16 -46 9 -55
40 -33 105 9 25 19 72 23 103 10 90 15 93 213 94 108 1 177 6 196 14 17 7 63
16 104 21 83 9 121 34 121 78 -1 62 -53 82 -145 56 -129 -35 -194 -45 -301
-45 -150 0 -149 -1 -137 124 6 53 14 100 17 104 4 4 101 10 214 13 174 4 212
8 240 23 24 13 47 17 79 13 55 -6 160 28 198 63 27 25 33 67 14 101 -10 19
-19 20 -132 17 -91 -2 -131 -7 -157 -20z"/>
<path d="M8071 2166 c-7 -8 -27 -17 -45 -20 -40 -8 -157 -68 -204 -105 -53
-42 -222 -211 -222 -223 0 -5 -11 -23 -24 -39 -53 -63 -106 -240 -105 -354 0
-131 40 -208 143 -276 l61 -40 120 5 c171 6 199 13 350 87 34 16 67 29 74 29
7 0 30 14 51 30 21 17 42 30 46 30 5 0 41 23 79 50 39 28 86 61 105 74 19 13
41 31 49 40 17 21 57 21 65 0 3 -9 6 -31 6 -49 0 -18 16 -68 35 -110 39 -84
112 -164 168 -185 18 -7 53 -23 78 -36 40 -21 61 -24 148 -24 104 0 117 3 256
71 98 48 189 147 217 239 28 87 48 214 48 296 0 41 6 107 14 147 45 231 46
287 6 319 -25 21 -78 23 -100 5 -30 -23 -58 -83 -69 -144 -25 -145 -30 -183
-36 -278 -17 -279 -58 -379 -182 -441 -50 -26 -67 -29 -147 -29 -81 0 -95 3
-126 25 -116 82 -131 117 -131 296 0 72 3 138 6 146 3 8 12 52 19 99 7 46 26
132 41 191 26 99 27 110 14 145 -15 38 -15 38 -77 41 -42 2 -62 -1 -62 -8 0
-7 -8 -24 -18 -38 -24 -34 -28 -50 -52 -197 -41 -245 -47 -262 -105 -319 -28
-28 -67 -62 -85 -76 -19 -14 -46 -35 -61 -47 -15 -13 -30 -23 -33 -23 -3 0
-25 -15 -50 -32 -86 -65 -265 -155 -326 -164 -25 -4 -62 -15 -82 -25 -27 -14
-59 -19 -114 -19 l-77 0 -42 43 c-57 56 -63 92 -41 226 15 87 42 165 74 217
82 134 233 272 342 315 19 7 50 24 69 36 37 25 71 29 89 11 20 -20 14 -38 -28
-85 -43 -50 -48 -69 -25 -112 14 -29 39 -41 86 -41 25 0 36 10 125 113 9 10
22 34 30 54 18 43 5 93 -31 117 -13 8 -26 25 -30 36 -6 19 -15 20 -139 20
-102 0 -136 -3 -145 -14z"/>
<path d="M10350 2167 c0 -8 -16 -34 -35 -58 -19 -24 -35 -49 -35 -54 0 -29
-122 -221 -209 -330 -61 -76 -85 -110 -165 -230 -56 -84 -210 -255 -231 -255
-6 0 -22 -11 -35 -25 -20 -22 -22 -28 -12 -50 17 -38 86 -65 141 -58 41 6 54
16 161 125 l116 118 65 0 c45 0 75 6 101 19 19 11 38 17 41 14 6 -6 124 20
195 43 23 8 47 14 52 14 15 0 50 -42 66 -80 46 -106 63 -135 117 -202 34 -42
44 -48 77 -48 85 0 109 119 36 179 -8 7 -24 30 -35 51 -11 21 -24 47 -30 57
-24 42 -70 162 -81 208 -7 28 -23 73 -35 100 -13 28 -26 66 -30 85 -7 32 -17
58 -71 175 -11 24 -21 74 -24 125 l-5 85 -67 3 c-53 2 -68 0 -68 -11z m28
-326 c17 -10 38 -51 69 -130 41 -108 24 -133 -112 -161 -95 -20 -154 -23 -170
-10 -21 18 -19 44 6 66 21 19 62 76 126 177 40 64 55 75 81 58z"/>
<path d="M5159 2117 c-19 -12 -38 -35 -43 -50 -8 -22 -5 -33 22 -71 37 -52 39
-67 12 -132 -10 -27 -29 -114 -40 -194 -12 -80 -28 -172 -35 -206 -27 -118
-28 -150 -7 -196 11 -24 33 -56 50 -72 29 -27 35 -28 99 -24 46 3 84 13 118
31 87 45 169 76 215 83 24 3 61 17 81 29 20 13 54 28 76 34 22 6 51 19 64 29
13 10 40 24 59 32 64 24 223 141 244 179 5 9 17 25 26 36 22 25 60 132 60 168
0 34 -41 126 -77 174 -55 74 -100 105 -187 129 -150 43 -157 43 -432 44 -266
0 -272 0 -305 -23z m636 -173 c92 -20 171 -88 181 -157 7 -41 -30 -109 -96
-177 -55 -56 -169 -117 -250 -132 -30 -5 -75 -20 -100 -33 -25 -12 -67 -26
-95 -30 -27 -4 -67 -16 -89 -27 -39 -20 -39 -20 -65 0 -24 18 -26 25 -23 78 1
32 9 87 18 123 8 36 19 97 24 135 18 123 41 206 64 222 17 12 53 14 206 11
102 -3 203 -9 225 -13z"/>
<path d="M3930 869 c-25 -4 -68 -8 -97 -8 -28 -1 -54 -5 -58 -10 -3 -5 6 -26
20 -47 31 -46 31 -59 1 -103 -20 -29 -25 -51 -27 -111 -4 -137 -6 -130 52
-130 l51 0 -7 29 c-5 23 -2 32 17 45 12 9 33 16 47 16 13 0 43 11 66 25 24 13
62 27 86 31 39 7 85 29 176 88 18 12 40 35 50 53 15 29 15 33 0 56 -9 14 -40
37 -69 51 -47 23 -64 25 -158 24 -58 -1 -125 -5 -150 -9z m278 -101 c5 -39
-51 -78 -125 -87 -32 -4 -74 -17 -93 -29 -101 -63 -153 28 -62 110 l37 33 120
0 120 0 3 -27z"/>
<path d="M4535 861 c-99 -19 -96 -15 -74 -93 11 -40 11 -58 0 -105 -8 -32 -16
-77 -18 -100 -4 -38 -2 -44 20 -54 14 -6 37 -9 51 -5 24 6 26 11 26 57 0 40 6
58 25 80 24 29 24 31 8 64 -15 31 -15 36 1 59 18 28 22 29 141 28 73 -1 82 -3
103 -27 12 -14 22 -32 22 -40 0 -38 75 -33 108 8 20 23 11 71 -13 75 -11 2
-29 12 -40 22 -38 33 -64 40 -167 45 -73 3 -130 -1 -193 -14z"/>
<path d="M5440 871 c-43 -7 -61 -15 -157 -68 -71 -39 -148 -143 -169 -226 -3
-15 -10 -29 -14 -32 -12 -7 -120 22 -168 45 -23 11 -47 20 -55 20 -18 0 -47
32 -47 53 0 14 -11 17 -64 17 -74 0 -116 -13 -116 -35 0 -8 12 -20 28 -26 32
-13 101 -45 122 -58 8 -5 60 -23 115 -41 104 -35 138 -35 169 -5 21 21 57 11
92 -26 l28 -29 150 0 c167 0 180 4 296 82 62 42 95 81 115 138 16 46 5 93 -29
123 -63 55 -192 85 -296 68z m193 -113 c54 -43 51 -75 -12 -137 -26 -26 -63
-53 -82 -60 -19 -7 -41 -17 -49 -22 -62 -39 -144 -50 -207 -29 -29 11 -63 55
-63 84 0 8 8 29 18 45 19 31 97 101 113 101 6 0 23 10 39 21 63 47 181 46 243
-3z"/>
<path d="M8000 874 c-8 -3 -38 -12 -66 -21 -43 -14 -67 -14 -164 -5 -85 8
-118 8 -128 -1 -12 -9 -11 -13 2 -23 12 -8 29 -9 60 -2 24 5 64 8 88 6 l43 -3
-1 -55 c-1 -30 -5 -80 -10 -110 -5 -30 -7 -75 -4 -100 4 -38 9 -46 33 -54 51
-18 61 -1 68 110 6 108 24 158 61 170 13 4 61 7 108 6 115 -3 145 6 145 44 0
24 -5 30 -30 35 -35 8 -183 10 -205 3z"/>
<path d="M7295 856 c-136 -46 -234 -109 -296 -191 -51 -68 -54 -123 -9 -173
l30 -32 170 0 c94 0 170 4 170 9 0 5 24 15 53 21 28 7 59 18 67 24 8 7 28 18
45 25 52 22 125 82 125 101 0 22 -28 40 -50 32 -8 -3 -28 -16 -43 -28 -16 -13
-34 -24 -40 -24 -6 0 -28 -12 -48 -26 -20 -14 -63 -32 -94 -40 -32 -9 -69 -23
-83 -32 -20 -13 -49 -17 -115 -17 -76 0 -91 3 -103 19 -26 37 -17 78 29 128
40 45 147 108 182 108 9 0 27 7 40 16 22 15 27 14 63 -6 48 -27 89 -23 114 10
36 49 2 77 -99 85 -43 3 -83 -1 -108 -9z"/>
<path d="M6129 839 c-7 -13 -8 -42 -4 -80 9 -73 -5 -115 -51 -160 l-35 -34
-122 -5 c-67 -3 -128 -9 -134 -13 -19 -12 -16 -35 6 -47 27 -14 257 -13 284 1
38 20 127 91 127 102 0 6 7 18 16 28 32 35 30 181 -2 214 -23 22 -71 19 -85
-6z"/>
<path d="M9142 851 c-7 -4 -22 -50 -33 -100 -28 -129 -49 -175 -89 -191 -29
-12 -33 -12 -43 6 -5 10 -40 49 -77 85 -37 37 -79 83 -94 102 -15 20 -40 40
-56 46 -42 14 -63 -9 -85 -92 -9 -37 -21 -70 -26 -73 -10 -6 -49 -133 -49
-158 0 -14 8 -17 48 -14 l47 3 13 65 c16 83 41 134 67 138 13 2 39 -16 75 -54
30 -31 64 -61 75 -67 11 -5 43 -28 72 -49 37 -27 62 -38 87 -38 34 0 34 0 60
80 14 45 39 112 55 150 38 88 47 136 31 155 -14 16 -57 20 -78 6z"/>
<path d="M10741 836 c-7 -8 -19 -36 -27 -62 -8 -26 -25 -62 -39 -80 -14 -18
-25 -37 -25 -42 0 -14 -58 -62 -75 -62 -7 0 -39 30 -71 68 -72 82 -71 82 -111
82 -28 0 -45 -13 -114 -85 -90 -94 -123 -108 -135 -57 -4 15 -11 32 -16 39 -5
6 -20 40 -32 75 -18 51 -31 68 -63 91 -43 29 -73 28 -73 -3 0 -10 12 -42 28
-72 15 -29 42 -87 61 -129 35 -76 85 -129 122 -129 9 0 53 38 97 85 104 110
112 110 207 15 60 -60 74 -70 105 -70 29 0 43 9 81 48 91 94 163 219 157 270
-2 22 -9 28 -34 30 -18 2 -36 -3 -43 -12z"/>
<path d="M6475 818 c-77 -25 -89 -41 -99 -137 -3 -29 -15 -71 -26 -93 -26 -50
-25 -72 4 -91 21 -14 50 -15 247 -6 123 6 230 12 237 15 7 2 12 14 10 26 -3
20 -8 23 -43 21 -22 -2 -105 -3 -185 -2 -171 0 -183 5 -157 66 9 21 19 57 22
81 6 39 12 47 57 74 43 26 48 33 32 38 -42 15 -70 17 -99 8z"/>
<path d="M9432 805 c-38 -16 -62 -64 -62 -121 0 -20 -12 -63 -27 -96 l-26 -59
24 -24 24 -24 235 11 c180 8 239 14 250 25 13 13 13 16 -5 29 -15 12 -32 14
-70 8 -27 -4 -108 -6 -180 -5 -153 3 -170 11 -143 64 9 17 21 53 28 78 11 44
52 89 79 89 17 0 24 22 10 31 -21 13 -100 10 -137 -6z"/>
</g>
</svg>
