<?xml version="1.0" standalone="no"?>
<!DOCTYPE svg PUBLIC "-//W3C//DTD SVG 20010904//EN"
 "http://www.w3.org/TR/2001/REC-SVG-20010904/DTD/svg10.dtd">
<svg version="1.0" xmlns="http://www.w3.org/2000/svg"
 width="167.000000pt" height="173.000000pt" viewBox="0 0 167.000000 173.000000"
 preserveAspectRatio="xMidYMid meet">
<metadata>
Created by potrace 1.15, written by Peter Selinger 2001-2017
</metadata>
<g transform="translate(0.000000,173.000000) scale(0.100000,-0.100000)"
fill="#000000" stroke="none">
<path d="M811 1691 c-11 -7 -12 -31 -7 -117 6 -94 5 -118 -13 -170 -11 -34
-24 -70 -29 -80 -6 -11 -20 -39 -33 -64 -12 -25 -32 -65 -45 -90 -12 -25 -32
-67 -44 -93 -19 -44 -71 -135 -92 -162 -29 -37 -96 -133 -99 -142 -5 -14 -37
-54 -150 -188 -69 -81 -97 -106 -136 -123 -65 -28 -76 -42 -68 -86 5 -26 1
-47 -15 -80 -12 -26 -20 -59 -18 -78 3 -30 6 -33 38 -36 28 -2 41 3 65 28 31
32 69 39 108 18 24 -12 126 -34 222 -47 34 -4 71 -13 83 -20 26 -14 74 -11 70
4 -2 11 -56 33 -98 42 -30 6 -93 35 -101 47 -4 5 -24 12 -45 15 -33 5 -39 10
-39 31 0 16 7 26 21 30 12 3 37 17 55 33 18 15 40 27 49 27 9 0 20 4 26 8 5 4
36 18 69 31 35 14 71 37 87 55 26 30 27 30 41 11 13 -17 17 -18 32 -5 10 8 30
13 46 12 21 -3 37 5 60 27 24 25 34 29 49 21 25 -13 123 -13 137 1 6 6 28 9
49 7 34 -3 41 -8 58 -43 10 -22 25 -53 32 -68 8 -16 14 -36 14 -46 0 -9 7 -26
15 -37 8 -10 15 -26 15 -35 0 -9 9 -36 20 -60 20 -45 26 -104 12 -113 -5 -3
-59 -6 -120 -7 -81 -2 -113 -6 -116 -16 -7 -18 -100 -17 -115 0 -6 8 -35 14
-69 15 -32 1 -75 8 -94 16 -34 14 -48 13 -48 -6 0 -14 70 -38 111 -38 21 0 41
-5 44 -10 4 -6 11 -8 16 -4 5 3 15 1 22 -4 7 -6 44 -13 82 -17 39 -4 75 -11
80 -15 6 -4 42 -10 80 -14 39 -3 94 -10 123 -14 43 -7 58 -6 73 7 31 25 35 83
10 131 -11 22 -21 50 -21 62 0 24 -26 118 -46 165 -16 35 -19 150 -5 172 13
20 99 30 208 23 60 -3 97 -10 104 -18 13 -16 45 -18 54 -5 7 13 -79 101 -136
138 -44 29 -63 34 -222 57 -76 11 -79 12 -93 45 -8 18 -14 54 -14 80 0 25 -7
55 -15 65 -8 11 -15 41 -15 67 0 26 -5 60 -10 75 -14 35 -29 125 -41 244 -5
52 -16 107 -24 122 -8 14 -15 34 -15 43 0 38 -84 117 -177 167 -38 21 -34 20
-52 9z m147 -611 c6 -11 22 -50 33 -87 12 -38 27 -84 34 -103 45 -126 45 -126
22 -148 -12 -11 -44 -23 -72 -27 -27 -3 -82 -17 -121 -31 -39 -13 -84 -24
-100 -24 -16 0 -42 -7 -58 -15 -31 -16 -111 -20 -120 -6 -6 9 13 29 57 62 15
12 37 38 47 60 11 21 26 39 34 39 14 0 68 56 106 110 23 33 59 77 88 106 6 7
12 26 12 42 0 45 17 55 38 22z"/>
</g>
</svg>
