<?xml version="1.0" standalone="no"?>
<!DOCTYPE svg PUBLIC "-//W3C//DTD SVG 20010904//EN"
 "http://www.w3.org/TR/2001/REC-SVG-20010904/DTD/svg10.dtd">
<svg version="1.0" xmlns="http://www.w3.org/2000/svg"
 width="58.000000pt" height="56.000000pt" viewBox="0 0 58.000000 56.000000"
 preserveAspectRatio="xMidYMid meet">

<g transform="translate(0.000000,56.000000) scale(0.100000,-0.100000)"
fill="#000000" stroke="none">
<path d="M62 288 l3 -273 237 -3 c227 -2 238 -2 238 16 0 16 -10 20 -52 26
-29 3 -74 6 -100 6 -27 0 -48 2 -48 4 0 2 45 108 100 236 56 128 99 239 96
247 -8 19 -216 19 -216 -1 0 -20 23 -26 95 -26 l64 0 -36 -79 c-36 -79 -36
-80 -76 -83 -50 -4 -60 -25 -18 -41 17 -6 31 -14 31 -17 0 -3 -23 -57 -50
-120 l-50 -115 -82 -3 -83 -3 3 126 3 125 45 0 c44 0 49 5 38 34 -4 11 -19 16
-45 16 l-39 0 0 80 0 80 86 0 c76 0 85 2 82 18 -3 15 -18 17 -116 20 l-112 3
2 -273z"/>
</g>
</svg>
